<svg id="Warstwa_1" xmlns="http://www.w3.org/2000/svg" viewBox="-281 405.6 32.9 31.3"><style>.st0{fill:#b2c200}.st1,.st2{display:none;fill:none;stroke:#f9f9f9;stroke-width:2;stroke-miterlimit:10}.st2{stroke:#dadada}</style><path class="st0" d="M-253.6 425.7c1 0 2-.8 2.4-1.9.5-1.4-.1-2.9-1.3-3.5.3-.3.6-.6.7-1.1.4-1.3.1-2.6-.9-3.2v-.1c.5-1.4 0-3-1.3-3.5-.1-1-.7-1.8-1.6-2.2-.8-.3-1.6-.2-2.3.2-.3-.4-.7-.8-1.2-.9-1.1-.3-2.2 0-2.9.9-.1-.6-.3-1.3-.9-1.8-1.1-1.1-2.8-1.2-3.8-.2-.6.6-.8 1.6-.6 2.5-.8.2-1.4.8-1.7 1.5-.2.5-.2 1.1 0 1.6-.6.3-1.1.9-1.3 1.5-.6 1.5.1 3 1.4 3.5h.1c.2.3.4.6.7.9l-7.6 9.5 4.1 4.1 10-7.9c0 1.1.6 2.1 1.6 2.5.9.4 2 0 2.8-.7 1.5.6 3-.2 3.6-1.7zm-14.2-2.8l1.6-2.4c.6-.1 1.1-.4 1.6-.9.2.1.3.1.5.1l-3.4 3.4-.3-.2zm3.1 3.4l-.3-.3 3.9-3.9c.2.4.5.7.9.9l-4.5 3.3z" id="Warstwa_1_1_"/><path class="st1" d="M-250.6 406.8l-28.9 28.6"/><path class="st2" d="M-249.1 407.8l-29 28.6"/></svg>