<svg id="Warstwa_1" xmlns="http://www.w3.org/2000/svg" xmlns:xlink="http://www.w3.org/1999/xlink" viewBox="-281 405.6 32.9 31.3"><style>.st0{fill:none}.st1{fill:#dadada}.st2,.st3{fill:none;stroke:#f9f9f9;stroke-width:2;stroke-miterlimit:10}.st3{stroke:#dadada}</style><g id="Warstwa_1_1_"><image width="32" height="30" xlink:href="1E021C33.jpeg" transform="matrix(.9687 0 0 .9666 -230.221 417.514)" overflow="visible"/><path class="st0" d="M-267.7 424.8c-.7.3-1.4.4-2.1.4h-.7c-1.1-.1-2.1-.5-3.1-1-1.2-.6-2.2-1.3-3.1-2.3-.8-1-1.4-2.1-1.5-3.4-.1-2 .9-3.5 2.7-4.3 2.1-1 4.3-1 6.4-.3 2 .7 3.9 1.5 5.9 2.2.9.4 1.6 1 2 1.9.1.2.2.4.2.6.5 1.6.2 2.9-1.1 3.9-.4.3-.7.5-1.1.7-1.5.5-3 1.1-4.5 1.6zm6.5.4c-1.2.2-4.2.4-4.4.4-.2 0-.5 0-.6-.4-.1-.3.1-.5.3-.6.1-.1.3-.1.4-.2.3-.1.6-.2.8-.3l2.7-.6c1.6-.3 2.2-.3 2.3.1.2.8-1.3 1.6-1.5 1.6zm9.5-3c-.5.5-1.1.9-1.8 1.1-1.3.5-2.7.7-4.1 1-.7.2-1.4-.2-1.9-.8-.7-.9-.9-1.9-.9-3.2 0-.3.1-.8.2-1.3.2-.9.5-1.7 1.1-2.3 1-1 2.3-1.1 3.6-.9 1.8.4 3.2 1.4 4.1 3 .9 1.3.7 2.5-.3 3.4z"/><path class="st1" d="M-256.5 422.4c0-8.7-9.1-10.9-9.1-10.9h-9.4v12s3.3-.8 3.5 2.5c.2 3.3-4.3 2.8-4.3 2.8v3.4h14.3c0-.1 5-1.1 5-9.8zm-15-6.1c0-1 .8-1.8 1.8-1.8s1.8.8 1.8 1.8-.8 1.8-1.8 1.8c-1 .1-1.8-.8-1.8-1.8zm4.6 12.3c-1 0-1.8-.8-1.8-1.8s.8-1.8 1.8-1.8 1.8.8 1.8 1.8-.8 1.8-1.8 1.8zm5.9-3.7c-1 0-1.8-.8-1.8-1.8s.8-1.8 1.8-1.8 1.8.8 1.8 1.8-.8 1.8-1.8 1.8z"/><path class="st1" d="M-251.7 417.7c-1.3-6.8-13.8-6.2-13.8-6.2 6.9 1.7 9.8 5.5 9.8 10.5s.6 5.5-3.4 10.5c5.2.7 6.4-3.5 6.4-3.5s2.3-4.6 1-11.3z"/></g><path class="st2" d="M-250.6 407.3l-28.9 28.6"/><path class="st3" d="M-249.1 408.2l-29 28.7"/></svg>