<svg version="1" id="Warstwa_1" xmlns="http://www.w3.org/2000/svg" viewBox="-247 358.9 100 125"><style>.st0{fill:#c2c2c2}</style><path class="st0" d="M-197 384.4c-24 0-43.5 19.5-43.5 43.5s19.5 43.5 43.5 43.5 43.5-19.5 43.5-43.5-19.5-43.5-43.5-43.5zm0 84c-22.3 0-40.5-18.2-40.5-40.5s18.2-40.5 40.5-40.5 40.5 18.2 40.5 40.5-18.2 40.5-40.5 40.5z"/><path class="st0" d="M-171.9 436.4c1.4-.3 2.6 1 2.3 2.4-2.1 10.7-13.6 18.9-27.4 18.9-13.8 0-25.2-8.1-27.4-18.8-.3-1.4.9-2.7 2.4-2.4 9.5 1.9 40.7 1.8 50.1-.1z"/><ellipse class="st0" cx="-212" cy="416.2" rx="4.2" ry="6.3"/><ellipse class="st0" cx="-182" cy="416.2" rx="4.2" ry="6.3"/></svg>