<svg id="Warstwa_1" xmlns="http://www.w3.org/2000/svg" xmlns:xlink="http://www.w3.org/1999/xlink" viewBox="-281 405.6 32.9 31.3"><style>.st0{fill:#dadada}.st1{fill:none}.st2,.st3{fill:none;stroke:#f9f9f9;stroke-width:2;stroke-miterlimit:10}.st3{stroke:#dadada}</style><g id="Warstwa_1_1_"><image width="32" height="30" xlink:href="D4D2D623.jpeg" transform="matrix(.9687 0 0 .9666 -230.221 417.514)" overflow="visible"/><path class="st0" d="M-249.1 422.2c0-.8-.1-1.7-.2-2.5 0-.2 0-.3-.1-.4 0-.1-.1-.3-.1-.4-.1-.3-.3-.6-.4-.9-.1-.2-.2-.4-.4-.5l-.6-.6c-.9-.9-1.9-1.6-3-2-.2-.1-.5-.2-.7-.2-.2-.1-.4-.1-.7-.1-.2 0-.5 0-.7-.1h-2.9s-2.6.1-3.9 0c-.3 0-.6-.1-.9-.1-.4-.1-.8-.2-1.2-.4-.4-.2-.8-.3-1.3-.5-.3-.1-.6-.2-.9-.4-.5-.2-3.3-1.2-3.6-1.2-.7-.2-1.4-.2-2.1-.2-.3 0-1.4.2-1.7.2-.2.1-.5.1-.8.2-.3.1-1.1.5-1.2.5-.6.3-1.1.7-1.5 1.1-.1 0-.6.6-.7.7-.1.1-.4.7-.5 1-.2.3-.5 1.5-.5 1.8-.2 1.2-.3 2.4-.3 3.7v.9c0 .6.1 1.3.2 1.9 0 .3.1.6.2.9.2.9.5 1.8 1 2.5.1.2.2.3.3.4.3.4.7.8 1.1 1.2.4.4.7.7 1.1.9.4.3.8.6 1.2.8.1.1.3.2.4.2.3.2.6.3.8.4 1 .4 2.1.7 3.2.9.3.1.6.1.9.2.3 0 .6.1.9.1.3 0 .6 0 .9.1h.9c1.3 0 2.6-.1 3.9-.2 1.2-.1 2.4-.3 3.6-.6.8-.2 1.6-.3 2.4-.5l2.4-.6 1.2-.3c1.3-.4 2.4-.9 3.3-2 .1-.1.1-.2.2-.3l.3-.6c0-.1.1-.2.1-.3s0-.2.1-.2c0-.2.1-.4.1-.5.2-1.1.2-2.2.2-3.3.1-.1.1-.4 0-.7zm-2.1 1.1c-.9.7-1.9 1.2-3 1.5-1.5.4-3.1.7-4.6 1-2.4.5-4.9.8-7.4.9-1-.1-2-.1-3-.2-1.9-.2-3.7-.7-5.4-1.7-1.7-.9-3.1-2.2-3.9-3.9-1.3-2.6-.5-5.4 1.9-7 1.8-1.1 3.8-1.3 5.9-1.1 1.5.2 2.8.7 4.1 1.3 2.2 1 4.4 1.4 6.8 1.3 1.2-.1 2.4-.1 3.7-.1 2.6.1 4.6 1.3 5.9 3.6.8 1.6.4 3.3-1 4.4z"/><path class="st1" d="M-267.7 424.8c-.7.3-1.4.4-2.1.4h-.7c-1.1-.1-2.1-.5-3.1-1-1.2-.6-2.2-1.3-3.1-2.3-.8-1-1.4-2.1-1.5-3.4-.1-2 .9-3.5 2.7-4.3 2.1-1 4.3-1 6.4-.3 2 .7 3.9 1.5 5.9 2.2.9.4 1.6 1 2 1.9.1.2.2.4.2.6.5 1.6.2 2.9-1.1 3.9-.4.3-.7.5-1.1.7-1.5.5-3 1.1-4.5 1.6zm6.5.4c-1.2.2-4.2.4-4.4.4-.2 0-.5 0-.6-.4-.1-.3.1-.5.3-.6.1-.1.3-.1.4-.2.3-.1.6-.2.8-.3l2.7-.6c1.6-.3 2.2-.3 2.3.1.2.8-1.3 1.6-1.5 1.6zm9.5-3c-.5.5-1.1.9-1.8 1.1-1.3.5-2.7.7-4.1 1-.7.2-1.4-.2-1.9-.8-.7-.9-.9-1.9-.9-3.2 0-.3.1-.8.2-1.3.2-.9.5-1.7 1.1-2.3 1-1 2.3-1.1 3.6-.9 1.8.4 3.2 1.4 4.1 3 .9 1.3.7 2.5-.3 3.4z"/><path class="st0" d="M-262.2 422.4c1.3-.9 1.7-2.3 1.1-3.9-.1-.2-.2-.4-.2-.6-.4-.9-1-1.6-2-1.9-2-.7-3.9-1.5-5.9-2.2-2.1-.6-4.3-.6-6.4.4-1.8.9-2.8 2.3-2.7 4.3 0 1.3.6 2.4 1.5 3.4s1.9 1.7 3.1 2.3c1 .5 2 .9 3.1 1h.7c.7 0 1.5-.1 2.1-.4 1.5-.6 3-1.1 4.4-1.8.5-.1.9-.4 1.2-.6zm-11.2-4.4c-1.2 0-2.2-.2-2.5-1.3-.3-1 .7-1.7 2.4-1.7 1.2 0 1.9.3 1.9 1.3s-.6 1.7-1.8 1.7zm11.4 5.6l-2.7.6c-.3.1-.6.2-.8.3-.2 0-.3.1-.4.2-.2.2-.4.3-.3.6.1.3.3.3.6.4.3 0 3.3-.2 4.4-.4.3 0 1.8-.8 1.5-1.4-.2-.6-.7-.6-2.3-.3zm6.7-7.7c-1.3-.2-2.6-.1-3.6.9-.7.6-1 1.5-1.1 2.3-.1.5-.1 1-.2 1.3 0 1.3.2 2.3.9 3.2.5.6 1.1.9 1.9.8 1.4-.3 2.8-.5 4.1-1 .7-.3 1.3-.6 1.8-1.1.9-.9 1.1-2.2.5-3.3-1.1-1.7-2.4-2.8-4.3-3.1z"/></g><path class="st2" d="M-250.6 406.8l-28.9 28.6"/><path class="st3" d="M-249.1 407.8l-29 28.6"/></svg>