<svg id="Warstwa_1" xmlns="http://www.w3.org/2000/svg" xmlns:xlink="http://www.w3.org/1999/xlink" viewBox="-281 405.6 32.9 31.3"><style>.st0{fill:#dadada}.st1,.st2{fill:none;stroke:#f9f9f9;stroke-width:2;stroke-miterlimit:10}.st2{stroke:#dadada}</style><g id="Warstwa_1_1_"><image width="32" height="30" xlink:href="E2CC9930.jpeg" transform="matrix(.9687 0 0 .9666 -230.221 417.514)" overflow="visible"/><path class="st0" d="M-249 427.2l-3.2 4.1h-24.5l-3.1-4.1zm-19.5-6.5c-.4.6-1 1.1-1.7 1.3-1.1.3-2.3-.2-3.1-.9-1.1-1-1.9-2.3-2.2-3.7s-.5-2.9-.4-4.4c0-.1 0-.3.1-.4 0-.1.1-.1.2-.1.7-.4 1.6-.2 2.3.2.7.4 1.2 1 1.8 1.4.9.6 1.9.8 2.8 1.4.8.6 1.3 1.6 1.3 2.6-.1 1-.5 1.9-1.1 2.6zm4.2-10.7h-.2l.3 1.1h-.6c-.3 0-.5.1-.7.3l-.3.3-.3-1.1s-.1 0-.2.1c-.6.2-1.1-.1-1.3-.7-.2-.6.1-1.1.7-1.3.5-.2 1-.2 1.2.4-.1-.6.3-.8.8-.9.6-.2 1.1.1 1.3.7.2.4-.1 1-.7 1.1zm-11.9 1.4c-.2.1-.4.3-.5.5l-.3.3-.7-1-.1.1c-.5.4-1.1.3-1.5-.1-.4-.4-.2-1.1.2-1.5.4-.4.9-.5 1.2 0-.3-.5 0-.8.5-1.2.5-.3 1.1-.2 1.5.2.3.5.2 1.1-.2 1.4 0 0-.1.1-.2.1l.7.9-.6.3zm11 1.8c0-.1.1-.3.2-.4s.1-.3.3-.4c.1 0 .1-.1.2-.1.8-.1 1.5.4 2 1 .1.2.3.4.4.6-.1 0-.2-.1-.3-.1-1-.3-1.9-.5-2.8-.6z"/><path class="st0" d="M-251.3 424.8c-.8.6-1.9.7-2.8 1.2h-24.4c-.1-2.1 1-4.7 2.3-6.5.5 1 1.2 1.9 2 2.6 1 .8 2.2 1.3 3.3 1.3.3 0 .7 0 1-.1.9-.2 1.7-.8 2.4-1.7.8-1 1.2-2.2 1.2-3.3 0-1.4-.6-2.7-1.8-3.6-.1 0-.1-.1-.2-.1 1.8-.2 3.6 0 5.3.6 3.1 1.1 5.7 3.4 7.5 6.1.2.3.4.7.7.8 1.1.7 2.9-.6 3.9.2 1 .6.5 1.9-.4 2.5z"/></g><path class="st1" d="M-250.6 406.8l-28.9 28.6"/><path class="st2" d="M-249.1 407.8l-29 28.6"/></svg>