<?xml version="1.0" encoding="utf-8"?>
<!-- Generator: Adobe Illustrator 19.1.1, SVG Export Plug-In . SVG Version: 6.00 Build 0)  -->
<svg version="1.1" id="Warstwa_1" xmlns="http://www.w3.org/2000/svg" xmlns:xlink="http://www.w3.org/1999/xlink" x="0px" y="0px"
	 viewBox="-281 405.6 32.9 31.3" style="enable-background:new -281 405.6 32.9 31.3;" xml:space="preserve">
<style type="text/css">
	.st0{fill:none;}
	.st1{fill:#DADADA;}
	.st2{fill:none;stroke:#F9F9F9;stroke-width:2;stroke-miterlimit:10;}
	.st3{fill:none;stroke:#DADADA;stroke-width:2;stroke-miterlimit:10;}
</style>
<g id="Warstwa_1_1_">
	
		<image style="overflow:visible;enable-background:new    ;" width="32" height="30" xlink:href="1E021C33.jpeg"  transform="matrix(0.9687 0 0 0.9666 -230.2211 417.5136)">
	</image>
	<path class="st0" d="M-267.7,424.8c-0.7,0.3-1.4,0.4-2.1,0.4c-0.2,0-0.5,0-0.7,0c-1.1-0.1-2.1-0.5-3.1-1c-1.2-0.6-2.2-1.3-3.1-2.3
		c-0.8-1-1.4-2.1-1.5-3.4c-0.1-2,0.9-3.5,2.7-4.3c2.1-1,4.3-1,6.4-0.3c2,0.7,3.9,1.5,5.9,2.2c0.9,0.4,1.6,1,2,1.9
		c0.1,0.2,0.2,0.4,0.2,0.6c0.5,1.6,0.2,2.9-1.1,3.9c-0.4,0.3-0.7,0.5-1.1,0.7C-264.7,423.7-266.2,424.3-267.7,424.8z M-261.2,425.2
		c-1.2,0.2-4.2,0.4-4.4,0.4c-0.2,0-0.5,0-0.6-0.4c-0.1-0.3,0.1-0.5,0.3-0.6c0.1-0.1,0.3-0.1,0.4-0.2c0.3-0.1,0.6-0.2,0.8-0.3
		c0.9-0.2,1.8-0.4,2.7-0.6c1.6-0.3,2.2-0.3,2.3,0.1C-259.5,424.4-261,425.2-261.2,425.2z M-251.7,422.2c-0.5,0.5-1.1,0.9-1.8,1.1
		c-1.3,0.5-2.7,0.7-4.1,1c-0.7,0.2-1.4-0.2-1.9-0.8c-0.7-0.9-0.9-1.9-0.9-3.2c0-0.3,0.1-0.8,0.2-1.3c0.2-0.9,0.5-1.7,1.1-2.3
		c1-1,2.3-1.1,3.6-0.9c1.8,0.4,3.2,1.4,4.1,3C-250.5,420.1-250.7,421.3-251.7,422.2z"/>
	<g>
		<g>
			<path class="st1" d="M-256.5,422.4c0-8.7-9.1-10.9-9.1-10.9h-9.4v12c0,0,3.3-0.8,3.5,2.5c0.2,3.3-4.3,2.8-4.3,2.8v3.4h14.3
				C-261.5,432.1-256.5,431.1-256.5,422.4z M-271.5,416.3c0-1,0.8-1.8,1.8-1.8s1.8,0.8,1.8,1.8s-0.8,1.8-1.8,1.8
				C-270.7,418.2-271.5,417.3-271.5,416.3z M-266.9,428.6c-1,0-1.8-0.8-1.8-1.8s0.8-1.8,1.8-1.8s1.8,0.8,1.8,1.8
				S-265.9,428.6-266.9,428.6z M-261,424.9c-1,0-1.8-0.8-1.8-1.8s0.8-1.8,1.8-1.8s1.8,0.8,1.8,1.8S-260,424.9-261,424.9z"/>
			<path class="st1" d="M-251.7,417.7c-1.3-6.8-13.8-6.2-13.8-6.2c6.9,1.7,9.8,5.5,9.8,10.5s0.6,5.5-3.4,10.5
				c5.2,0.7,6.4-3.5,6.4-3.5S-250.4,424.4-251.7,417.7z"/>
		</g>
	</g>
</g>
<line class="st2" x1="-250.6" y1="407.3" x2="-279.5" y2="435.9"/>
<line class="st3" x1="-249.1" y1="408.2" x2="-278.1" y2="436.9"/>
</svg>
