<?xml version="1.0" encoding="utf-8"?>
<!-- Generator: Adobe Illustrator 19.1.1, SVG Export Plug-In . SVG Version: 6.00 Build 0)  -->
<svg version="1.1" id="Warstwa_1" xmlns="http://www.w3.org/2000/svg" xmlns:xlink="http://www.w3.org/1999/xlink" x="0px" y="0px"
	 viewBox="-281 405.6 32.9 31.3" style="enable-background:new -281 405.6 32.9 31.3;" xml:space="preserve">
<style type="text/css">
	.st0{fill:#DADADA;}
	.st1{fill:none;stroke:#F9F9F9;stroke-width:2;stroke-miterlimit:10;}
	.st2{fill:none;stroke:#DADADA;stroke-width:2;stroke-miterlimit:10;}
</style>
<g id="Warstwa_1_1_">
	<path class="st0" d="M-253.6,425.7c1,0,2-0.8,2.4-1.9c0.5-1.4-0.1-2.9-1.3-3.5c0.3-0.3,0.6-0.6,0.7-1.1c0.4-1.3,0.1-2.6-0.9-3.2
		c0,0,0,0,0-0.1c0.5-1.4,0-3-1.3-3.5c-0.1-1-0.7-1.8-1.6-2.2c-0.8-0.3-1.6-0.2-2.3,0.2c-0.3-0.4-0.7-0.8-1.2-0.9
		c-1.1-0.3-2.2,0-2.9,0.9c-0.1-0.6-0.3-1.3-0.9-1.8c-1.1-1.1-2.8-1.2-3.8-0.2c-0.6,0.6-0.8,1.6-0.6,2.5c-0.8,0.2-1.4,0.8-1.7,1.5
		c-0.2,0.5-0.2,1.1,0,1.6c-0.6,0.3-1.1,0.9-1.3,1.5c-0.6,1.5,0.1,3,1.4,3.5h0.1c0.2,0.3,0.4,0.6,0.7,0.9l-7.6,9.5l4.1,4.1l10-7.9
		c0,1.1,0.6,2.1,1.6,2.5c0.9,0.4,2,0,2.8-0.7l0,0C-255.7,428-254.2,427.2-253.6,425.7L-253.6,425.7z M-267.8,422.9l1.6-2.4
		c0.6-0.1,1.1-0.4,1.6-0.9l0,0c0.2,0.1,0.3,0.1,0.5,0.1l-3.4,3.4L-267.8,422.9z M-264.7,426.3l-0.3-0.3l3.9-3.9
		c0.2,0.4,0.5,0.7,0.9,0.9L-264.7,426.3z"/>
</g>
<line class="st1" x1="-250.6" y1="406.8" x2="-279.5" y2="435.4"/>
<line class="st2" x1="-249.1" y1="407.8" x2="-278.1" y2="436.4"/>
</svg>
