<?xml version="1.0" encoding="utf-8"?>
<!-- Generator: Adobe Illustrator 19.1.1, SVG Export Plug-In . SVG Version: 6.00 Build 0)  -->
<svg version="1.1" id="Warstwa_1" xmlns="http://www.w3.org/2000/svg" xmlns:xlink="http://www.w3.org/1999/xlink" x="0px" y="0px"
	 viewBox="-281 405.6 32.9 31.3" style="enable-background:new -281 405.6 32.9 31.3;" xml:space="preserve">
<style type="text/css">
	.st0{fill:#DADADA;}
	.st1{fill:none;stroke:#F9F9F9;stroke-width:2;stroke-miterlimit:10;}
	.st2{fill:none;stroke:#DADADA;stroke-width:2;stroke-miterlimit:10;}
</style>
<g id="Warstwa_1_1_">
	
		<image style="overflow:visible;enable-background:new    ;" width="32" height="30" xlink:href="E2CC9930.jpeg"  transform="matrix(0.9687 0 0 0.9666 -230.2211 417.5136)">
	</image>
	<g>
		<g>
			<polygon class="st0" points="-249,427.2 -252.2,431.3 -276.7,431.3 -279.8,427.2 			"/>
			<path class="st0" d="M-268.5,420.7c-0.4,0.6-1,1.1-1.7,1.3c-1.1,0.3-2.3-0.2-3.1-0.9c-1.1-1-1.9-2.3-2.2-3.7s-0.5-2.9-0.4-4.4
				c0-0.1,0-0.3,0.1-0.4c0-0.1,0.1-0.1,0.2-0.1c0.7-0.4,1.6-0.2,2.3,0.2c0.7,0.4,1.2,1,1.8,1.4c0.9,0.6,1.9,0.8,2.8,1.4
				c0.8,0.6,1.3,1.6,1.3,2.6C-267.5,419.1-267.9,420-268.5,420.7z"/>
			<path class="st0" d="M-264.3,410c-0.1,0-0.1,0-0.2,0l0.3,1.1h-0.1c-0.2,0-0.3,0-0.5,0c-0.3,0-0.5,0.1-0.7,0.3
				c-0.1,0.1-0.2,0.2-0.3,0.3l-0.3-1.1c0,0-0.1,0-0.2,0.1c-0.6,0.2-1.1-0.1-1.3-0.7c-0.2-0.6,0.1-1.1,0.7-1.3c0.5-0.2,1-0.2,1.2,0.4
				l0,0c-0.1-0.6,0.3-0.8,0.8-0.9c0.6-0.2,1.1,0.1,1.3,0.7C-263.4,409.3-263.7,409.9-264.3,410z"/>
			<path class="st0" d="M-276.2,411.4c-0.2,0.1-0.4,0.3-0.5,0.5c-0.1,0.1-0.2,0.2-0.3,0.3l-0.7-1l-0.1,0.1c-0.5,0.4-1.1,0.3-1.5-0.1
				c-0.4-0.4-0.2-1.1,0.2-1.5c0.4-0.4,0.9-0.5,1.2,0l0,0c-0.3-0.5,0-0.8,0.5-1.2c0.5-0.3,1.1-0.2,1.5,0.2c0.3,0.5,0.2,1.1-0.2,1.4
				c0,0-0.1,0.1-0.2,0.1l0.7,0.9C-275.8,411.2-276,411.3-276.2,411.4z"/>
			<path class="st0" d="M-265.2,413.2c0-0.1,0.1-0.3,0.2-0.4s0.1-0.3,0.3-0.4c0.1,0,0.1-0.1,0.2-0.1c0.8-0.1,1.5,0.4,2,1
				c0.1,0.2,0.3,0.4,0.4,0.6c-0.1,0-0.2-0.1-0.3-0.1C-263.4,413.5-264.3,413.3-265.2,413.2z"/>
			<path class="st0" d="M-251.3,424.8c-0.8,0.6-1.9,0.7-2.8,1.2h-24.4c-0.1-2.1,1-4.7,2.3-6.5c0.5,1,1.2,1.9,2,2.6
				c1,0.8,2.2,1.3,3.3,1.3l0,0c0.3,0,0.7,0,1-0.1c0.9-0.2,1.7-0.8,2.4-1.7c0.8-1,1.2-2.2,1.2-3.3c0-1.4-0.6-2.7-1.8-3.6
				c-0.1,0-0.1-0.1-0.2-0.1c1.8-0.2,3.6,0,5.3,0.6c3.1,1.1,5.7,3.4,7.5,6.1c0.2,0.3,0.4,0.7,0.7,0.8c1.1,0.7,2.9-0.6,3.9,0.2
				C-249.9,422.9-250.4,424.2-251.3,424.8z"/>
		</g>
	</g>
</g>
<line class="st1" x1="-250.6" y1="406.8" x2="-279.5" y2="435.4"/>
<line class="st2" x1="-249.1" y1="407.8" x2="-278.1" y2="436.4"/>
</svg>
