<?xml version="1.0" encoding="utf-8"?>
<!-- Generator: Adobe Illustrator 19.1.1, SVG Export Plug-In . SVG Version: 6.00 Build 0)  -->
<svg version="1.1" id="Warstwa_1" xmlns="http://www.w3.org/2000/svg" xmlns:xlink="http://www.w3.org/1999/xlink" x="0px" y="0px"
	 viewBox="-281 405.6 32.9 31.3" style="enable-background:new -281 405.6 32.9 31.3;" xml:space="preserve">
<style type="text/css">
	.st0{fill:#DADADA;}
	.st1{fill:none;}
	.st2{fill:none;stroke:#F9F9F9;stroke-width:2;stroke-miterlimit:10;}
	.st3{fill:none;stroke:#DADADA;stroke-width:2;stroke-miterlimit:10;}
</style>
<g id="Warstwa_1_1_">
	
		<image style="overflow:visible;enable-background:new    ;" width="32" height="30" xlink:href="D4D2D623.jpeg"  transform="matrix(0.9687 0 0 0.9666 -230.2211 417.5136)">
	</image>
	<path class="st0" d="M-249.1,422.2c0-0.8-0.1-1.7-0.2-2.5c0-0.2,0-0.3-0.1-0.4c0-0.1-0.1-0.3-0.1-0.4c-0.1-0.3-0.3-0.6-0.4-0.9
		c-0.1-0.2-0.2-0.4-0.4-0.5c-0.2-0.2-0.4-0.4-0.6-0.6c-0.9-0.9-1.9-1.6-3-2c-0.2-0.1-0.5-0.2-0.7-0.2c-0.2-0.1-0.4-0.1-0.7-0.1
		c-0.2,0-0.5,0-0.7-0.1c-0.2,0-0.5,0-0.7,0c-0.7,0-1.4,0-2.2,0c0,0-2.6,0.1-3.9,0c-0.3,0-0.6-0.1-0.9-0.1c-0.4-0.1-0.8-0.2-1.2-0.4
		c-0.4-0.2-0.8-0.3-1.3-0.5c-0.3-0.1-0.6-0.2-0.9-0.4c-0.5-0.2-3.3-1.2-3.6-1.2c-0.7-0.2-1.4-0.2-2.1-0.2c-0.3,0-1.4,0.2-1.7,0.2
		c-0.2,0.1-0.5,0.1-0.8,0.2c-0.3,0.1-1.1,0.5-1.2,0.5c-0.6,0.3-1.1,0.7-1.5,1.1c-0.1,0-0.6,0.6-0.7,0.7c-0.1,0.1-0.4,0.7-0.5,1
		c-0.2,0.3-0.5,1.5-0.5,1.8c-0.2,1.2-0.3,2.4-0.3,3.7c0,0.3,0,0.6,0,0.9c0,0.6,0.1,1.3,0.2,1.9c0,0.3,0.1,0.6,0.2,0.9
		c0.2,0.9,0.5,1.8,1,2.5c0.1,0.2,0.2,0.3,0.3,0.4c0.3,0.4,0.7,0.8,1.1,1.2c0.4,0.4,0.7,0.7,1.1,0.9c0.4,0.3,0.8,0.6,1.2,0.8
		c0.1,0.1,0.3,0.2,0.4,0.2c0.3,0.2,0.6,0.3,0.8,0.4c1,0.4,2.1,0.7,3.2,0.9c0.3,0.1,0.6,0.1,0.9,0.2c0.3,0,0.6,0.1,0.9,0.1
		c0.3,0,0.6,0,0.9,0.1c0.3,0,0.6,0,0.9,0c1.3,0,2.6-0.1,3.9-0.2c1.2-0.1,2.4-0.3,3.6-0.6c0.8-0.2,1.6-0.3,2.4-0.5
		c0.8-0.2,1.6-0.4,2.4-0.6c0.4-0.1,0.8-0.2,1.2-0.3c1.3-0.4,2.4-0.9,3.3-2c0.1-0.1,0.1-0.2,0.2-0.3c0.1-0.2,0.2-0.4,0.3-0.6
		c0-0.1,0.1-0.2,0.1-0.3s0-0.2,0.1-0.2c0-0.2,0.1-0.4,0.1-0.5c0.2-1.1,0.2-2.2,0.2-3.3C-249,422.8-249,422.5-249.1,422.2z
		 M-251.2,423.3c-0.9,0.7-1.9,1.2-3,1.5c-1.5,0.4-3.1,0.7-4.6,1c-2.4,0.5-4.9,0.8-7.4,0.9c-1-0.1-2-0.1-3-0.2
		c-1.9-0.2-3.7-0.7-5.4-1.7c-1.7-0.9-3.1-2.2-3.9-3.9c-1.3-2.6-0.5-5.4,1.9-7c1.8-1.1,3.8-1.3,5.9-1.1c1.5,0.2,2.8,0.7,4.1,1.3
		c2.2,1,4.4,1.4,6.8,1.3c1.2-0.1,2.4-0.1,3.7-0.1c2.6,0.1,4.6,1.3,5.9,3.6C-249.4,420.5-249.8,422.2-251.2,423.3z"/>
	<path class="st1" d="M-267.7,424.8c-0.7,0.3-1.4,0.4-2.1,0.4c-0.2,0-0.5,0-0.7,0c-1.1-0.1-2.1-0.5-3.1-1c-1.2-0.6-2.2-1.3-3.1-2.3
		c-0.8-1-1.4-2.1-1.5-3.4c-0.1-2,0.9-3.5,2.7-4.3c2.1-1,4.3-1,6.4-0.3c2,0.7,3.9,1.5,5.9,2.2c0.9,0.4,1.6,1,2,1.9
		c0.1,0.2,0.2,0.4,0.2,0.6c0.5,1.6,0.2,2.9-1.1,3.9c-0.4,0.3-0.7,0.5-1.1,0.7C-264.7,423.7-266.2,424.3-267.7,424.8z M-261.2,425.2
		c-1.2,0.2-4.2,0.4-4.4,0.4c-0.2,0-0.5,0-0.6-0.4c-0.1-0.3,0.1-0.5,0.3-0.6c0.1-0.1,0.3-0.1,0.4-0.2c0.3-0.1,0.6-0.2,0.8-0.3
		c0.9-0.2,1.8-0.4,2.7-0.6c1.6-0.3,2.2-0.3,2.3,0.1C-259.5,424.4-261,425.2-261.2,425.2z M-251.7,422.2c-0.5,0.5-1.1,0.9-1.8,1.1
		c-1.3,0.5-2.7,0.7-4.1,1c-0.7,0.2-1.4-0.2-1.9-0.8c-0.7-0.9-0.9-1.9-0.9-3.2c0-0.3,0.1-0.8,0.2-1.3c0.2-0.9,0.5-1.7,1.1-2.3
		c1-1,2.3-1.1,3.6-0.9c1.8,0.4,3.2,1.4,4.1,3C-250.5,420.1-250.7,421.3-251.7,422.2z"/>
	<path class="st0" d="M-262.2,422.4c1.3-0.9,1.7-2.3,1.1-3.9c-0.1-0.2-0.2-0.4-0.2-0.6c-0.4-0.9-1-1.6-2-1.9c-2-0.7-3.9-1.5-5.9-2.2
		c-2.1-0.6-4.3-0.6-6.4,0.4c-1.8,0.9-2.8,2.3-2.7,4.3c0,1.3,0.6,2.4,1.5,3.4c0.9,1,1.9,1.7,3.1,2.3c1,0.5,2,0.9,3.1,1
		c0.2,0,0.5,0,0.7,0c0.7,0,1.5-0.1,2.1-0.4c1.5-0.6,3-1.1,4.4-1.8C-262.9,422.9-262.5,422.6-262.2,422.4z M-273.4,418
		c-1.2,0-2.2-0.2-2.5-1.3c-0.3-1,0.7-1.7,2.4-1.7c1.2,0,1.9,0.3,1.9,1.3S-272.2,418-273.4,418z"/>
	<path class="st0" d="M-262,423.6c-0.9,0.2-1.8,0.4-2.7,0.6c-0.3,0.1-0.6,0.2-0.8,0.3c-0.2,0-0.3,0.1-0.4,0.2
		c-0.2,0.2-0.4,0.3-0.3,0.6c0.1,0.3,0.3,0.3,0.6,0.4c0.3,0,3.3-0.2,4.4-0.4c0.3,0,1.8-0.8,1.5-1.4
		C-259.9,423.3-260.4,423.3-262,423.6z"/>
	<path class="st0" d="M-255.3,415.9c-1.3-0.2-2.6-0.1-3.6,0.9c-0.7,0.6-1,1.5-1.1,2.3c-0.1,0.5-0.1,1-0.2,1.3c0,1.3,0.2,2.3,0.9,3.2
		c0.5,0.6,1.1,0.9,1.9,0.8c1.4-0.3,2.8-0.5,4.1-1c0.7-0.3,1.3-0.6,1.8-1.1c0.9-0.9,1.1-2.2,0.5-3.3
		C-252.1,417.3-253.4,416.2-255.3,415.9z"/>
</g>
<line class="st2" x1="-250.6" y1="406.8" x2="-279.5" y2="435.4"/>
<line class="st3" x1="-249.1" y1="407.8" x2="-278.1" y2="436.4"/>
</svg>
