<?xml version="1.0" encoding="utf-8"?>
<!-- Generator: Adobe Illustrator 19.1.1, SVG Export Plug-In . SVG Version: 6.00 Build 0)  -->
<svg version="1.0" id="Warstwa_1" xmlns="http://www.w3.org/2000/svg" xmlns:xlink="http://www.w3.org/1999/xlink" x="0px" y="0px"
	 viewBox="-247 358.9 100 125" style="enable-background:new -247 358.9 100 125;" xml:space="preserve">
<style type="text/css">
	.st0{fill:#C2C2C2;}
</style>
<path class="st0" d="M-197,384.4c-24,0-43.5,19.5-43.5,43.5c0,24,19.5,43.5,43.5,43.5s43.5-19.5,43.5-43.5
	C-153.5,403.9-173,384.4-197,384.4z M-197,468.4c-22.3,0-40.5-18.2-40.5-40.5s18.2-40.5,40.5-40.5s40.5,18.2,40.5,40.5
	S-174.7,468.4-197,468.4z"/>
<path class="st0" d="M-171.9,436.4c1.4-0.3,2.6,1,2.3,2.4c-2.1,10.7-13.6,18.9-27.4,18.9c-13.8,0-25.2-8.1-27.4-18.8
	c-0.3-1.4,0.9-2.7,2.4-2.4C-212.5,438.4-181.3,438.3-171.9,436.4z"/>
<ellipse class="st0" cx="-212" cy="416.2" rx="4.2" ry="6.3"/>
<ellipse class="st0" cx="-182" cy="416.2" rx="4.2" ry="6.3"/>
</svg>
